<?xml version="1.0" standalone="no"?><!DOCTYPE svg PUBLIC "-//W3C//DTD SVG 1.1//EN" "http://www.w3.org/Graphics/SVG/1.1/DTD/svg11.dtd"><svg class="icon" width="200px" height="200.00px" viewBox="0 0 1024 1024" version="1.1" xmlns="http://www.w3.org/2000/svg"><path d="M417.158672 24.520329c49.521449 4.71175 222.606124-39.232526 239.241485 75.964941 17.789258 122.89012-80.869007 229.62567-129.332716 279.820226S365.329428 509.638212 284.460421 461.174502s45.29049-185.969868 174.623206-166.642079c35.578517 4.904066 21.058636 85.773073-9.615815 106.73555s-106.73555-16.15457-116.447524-16.15457-33.943828 25.866543-6.442596 38.463261 182.700491-76.061099 226.452451-174.623206 25.866543-165.007391-42.117271-161.738013-121.255431 37.213205-168.18061-21.058636a57.694892 57.694892 0 0 1-6.442596-66.156809z"  /><path d="M407.350541 375.40143S255.324501 499.926238 229.457957 525.792781s-19.231631 88.946292 30.770609 93.850358 205.297657-11.346662 260.300121-97.023577 92.215669-253.953682-64.618279-278.185537c0 0 108.27408 22.693324 88.850133 124.524809s-97.023576 163.46886-203.759126 158.468636z"  /><path d="M499.277735 818.786674c13.5583-9.615815 26.53965-17.404626 38.463261-24.520329 77.695788-45.29049 166.545921-88.946292 166.545922-95.388888s-66.252967-16.15457-151.929882 32.309139c-51.829245 32.405298-129.428874-11.346662-144.23723-35.578516s-40.482582-9.615815-56.637152 40.482582-27.501232 247.414928-35.578517 271.646783-12.885193 30.770609-82.407537-48.079077c-28.847446-30.770609 12.885193-9.615815 1.53853-50.194556s19.231631-221.163752 32.405298-279.724067 55.002464-197.31653 64.618279-244.241709 50.194556-80.869007 58.271841-98.658265 50.098398-58.175683 50.098397-58.175683c8.077285-3.269377 33.943828-11.346662 35.578517 21.058636s-145.487286 292.705418-160.103325 384.632612-48.079077 276.550848-43.655801 305.686769 46.925179-158.468636 71.157033-229.62567 88.946292-74.426411 97.023576-71.157033 78.08042 42.309587 91.446404 42.309587 216.740477-46.925179 242.60702-21.058635 58.175683 58.271841 9.615816 80.869007c-6.057964 2.788586-12.212085 5.384857-18.366208 7.884968z"  /></svg>